<?xml version="1.0" encoding="UTF-8"?>
<svg width="30px" height="30px" enable-background="new 0 0 467.211 467.211" version="1.1" viewBox="0 0 467.21 467.21" xmlns="http://www.w3.org/2000/svg">
<g fill="#fff">
<path d="m413.92 96.775h-360.62c-6.369 0-11.551 5.181-11.551 11.55v213.18c0 6.369 5.182 11.55 11.551 11.55h360.62c6.368 0 11.55-5.181 11.55-11.55v-213.18c-5.6843e-14 -6.369-5.182-11.551-11.55-11.551zm1.55 224.73c0 0.855-0.695 1.55-1.55 1.55h-360.62c-0.855 0-1.551-0.696-1.551-1.55v-213.18c0-0.855 0.695-1.55 1.551-1.55h360.62c0.854 0 1.55 0.696 1.55 1.55v213.18z"/>
<path d="m459.71 340.56h-11.744v-237.72c0-15.752-12.815-28.568-28.568-28.568h-371.59c-15.753 0-28.568 12.815-28.568 28.568v237.71h-11.745c-4.143 0-7.5 3.358-7.5 7.5v20.605c0 13.384 10.889 24.272 24.272 24.272h418.67c13.384 0 24.272-10.889 24.272-24.272v-20.605c1e-3 -4.141-3.356-7.499-7.499-7.499zm-425.47-237.72c-2.8422e-14 -7.481 6.087-13.568 13.568-13.568h371.59c7.481 0 13.568 6.086 13.568 13.568v237.71h-398.72v-237.71zm177.36 252.72h44v3.922c0 1.755-1.428 3.184-3.184 3.184h-37.633c-1.756 0-3.184-1.428-3.184-3.184v-3.922zm240.61 13.105c0 5.113-4.159 9.272-9.272 9.272h-418.67c-5.113 0-9.272-4.16-9.272-9.272v-13.105h186.6v3.922c0 7.27 5.914 13.184 13.184 13.184h37.633c7.27 0 13.184-5.914 13.184-13.184v-3.922h186.6v13.105z"/>
</g>
</svg>