<?xml version="1.0" encoding="UTF-8"?>
<svg width="30px" height="30px" enable-background="new 0 0 512 512" version="1.1" viewBox="0 0 512 512" xml:space="preserve" xmlns="http://www.w3.org/2000/svg">

    <path d="m455.14 498.05-99.132-99.132c-1.532-1.532-3.61-2.392-5.777-2.392h-18.927c-4.512 0-8.17 3.657-8.17 8.17s3.658 8.17 8.17 8.17h15.542l82.792 82.791h-347.28l82.791-82.791h15.542c4.512 0 8.17-3.657 8.17-8.17s-3.658-8.17-8.17-8.17h-18.925c-2.167 0-4.245 0.861-5.777 2.392l-99.132 99.132c-2.337 2.338-3.036 5.851-1.771 8.904s4.244 5.044 7.548 5.044h386.72c3.304 0 6.283-1.99 7.548-5.044 1.266-3.053 0.566-6.566-1.77-8.904z" fill="#fff"/>

    <path d="m256 0c-94.607 0-171.57 76.968-171.57 171.57 0 35.596 10.808 69.742 31.263 98.756l133.64 188.96c1.532 2.165 4.019 3.452 6.671 3.452 2.653 0 5.14-1.288 6.671-3.452l133.65-188.97c20.448-29.004 31.256-63.15 31.256-98.746-2e-3 -94.606-76.969-171.57-171.58-171.57zm126.97 260.9-126.97 179.53-126.96-179.52c-18.495-26.234-28.271-57.125-28.271-89.331 0-85.596 69.637-155.23 155.23-155.23s155.23 69.637 155.23 155.23c0 32.206-9.776 63.097-28.263 89.321z" fill="#fff"/>

    <path d="m256 92.596c-43.549 0-78.979 35.429-78.979 78.979 0 14.657 4.073 28.988 11.779 41.442 2.375 3.836 7.41 5.022 11.247 2.649 3.837-2.375 5.023-7.41 2.649-11.247-6.107-9.87-9.335-21.225-9.335-32.843 0-34.539 28.099-62.638 62.638-62.638s62.638 28.099 62.638 62.638-28.098 62.637-62.637 62.637c-11.617 0-22.974-3.228-32.843-9.335-3.839-2.376-8.873-1.187-11.247 2.649s-1.189 8.873 2.649 11.247c12.454 7.706 26.784 11.779 41.44 11.779 43.549 0 78.979-35.429 78.979-78.979 1e-3 -43.549-35.429-78.978-78.978-78.978z" fill="#fff"/>

</svg>