<?xml version="1.0" encoding="UTF-8"?>
<svg width="30px" height="30px" enable-background="new 0 0 472.811 472.811" version="1.1" viewBox="0 0 472.81 472.81" xmlns="http://www.w3.org/2000/svg">
<g fill="#fff">
<path d="m358.75 0h-244.69c-16.506 0-29.933 13.428-29.933 29.934v412.94c0 16.505 13.428 29.934 29.934 29.934h244.69c16.506 0 29.934-13.428 29.934-29.934v-412.94c-1e-3 -16.506-13.428-29.934-29.934-29.934zm-259.62 75.236h274.56v312.69h-274.56v-312.69zm14.933-60.236h244.69c8.234 0 14.934 6.699 14.934 14.934v35.302h-274.56v-35.302c0-8.235 6.699-14.934 14.933-14.934zm244.69 442.81h-244.69c-8.234 0-14.934-6.699-14.934-14.934v-44.955h274.56v44.955c0 8.235-6.699 14.934-14.933 14.934z"/>
<path d="m236.41 404.55c-13.545 0-24.564 11.02-24.564 24.565s11.02 24.564 24.564 24.564 24.564-11.02 24.564-24.564-11.019-24.565-24.564-24.565zm0 39.129c-8.031 0-14.564-6.534-14.564-14.564 0-8.031 6.533-14.565 14.564-14.565s14.564 6.534 14.564 14.565c0 8.03-6.533 14.564-14.564 14.564z"/>
<path d="m202.41 47.645h68c2.762 0 5-2.239 5-5s-2.238-5-5-5h-68c-2.762 0-5 2.239-5 5s2.238 5 5 5z"/>
<path d="m184.41 47.645c1.31 0 2.6-0.53 3.53-1.46 0.93-0.94 1.47-2.22 1.47-3.54s-0.54-2.6-1.47-3.54c-0.931-0.93-2.221-1.46-3.53-1.46-1.32 0-2.601 0.53-3.54 1.46-0.93 0.93-1.46 2.22-1.46 3.54s0.53 2.6 1.46 3.54c0.93 0.93 2.22 1.46 3.54 1.46z"/>
</g>
</svg>